<svg width="395" height="64" viewBox="0 0 395 64" fill="none" xmlns="http://www.w3.org/2000/svg">
<path d="M228.299 0C233.653 0 238.345 1.076 242.375 3.228C246.462 5.38 249.629 8.54984 251.874 12.7375C254.119 16.867 255.242 21.8689 255.242 27.7433V62.1171H241.166V26.5219C241.166 21.7526 240.014 18.1466 237.712 15.7038C235.409 13.261 232.271 12.0396 228.299 12.0396C224.269 12.0396 221.074 13.261 218.713 15.7038C216.411 18.1466 215.259 21.112 215.259 26.5219C215.259 35.4207 225.872 55.004 214.05 62.1171C207.01 66.3536 194.275 62.1171 194.275 62.1171L196.637 50.9198C196.637 50.9198 202.521 52.6894 204.551 52.0833C211.287 50.072 202.521 33.6177 202.521 27.7433C202.521 21.8689 202.306 16.867 204.551 12.7375C206.796 8.54984 209.963 5.38 214.05 3.228C218.138 1.076 222.887 0 228.299 0Z" fill="white"/>
<path d="M32.8216 64.0001C26.6441 64.0001 21.0439 62.6704 16.0211 60.0109C11.056 57.2936 7.13011 53.5646 4.24342 48.8238C1.41448 44.0251 0 38.6195 0 32.6067C0 26.594 1.41448 21.2173 4.24342 16.4764C7.13011 11.6778 11.056 7.94879 16.0211 5.28931C21.0439 2.57202 26.673 1.21338 32.9082 1.21338C38.162 1.21338 42.8961 2.13841 47.1107 3.98848C51.383 5.83855 54.9624 8.49803 57.8491 11.9669L48.8427 20.2922C44.7436 15.5514 39.663 13.181 33.601 13.181C29.8483 13.181 26.4998 14.0193 23.5553 15.696C20.6109 17.3148 18.3016 19.5984 16.6273 22.547C15.0108 25.4955 14.2025 28.8488 14.2025 32.6067C14.2025 36.3647 15.0108 39.7179 16.6273 42.6665C18.3016 45.615 20.6109 47.9276 23.5553 49.6043C26.4998 51.2231 29.8483 52.0325 33.601 52.0325C39.663 52.0325 44.7436 49.6332 48.8427 44.8345L57.8491 53.1599C54.9624 56.6866 51.383 59.3749 47.1107 61.225C42.8384 63.0751 38.0754 64.0001 32.8216 64.0001Z" fill="white"/>
<path d="M91.1382 38.5038H81.439V62.9594H67.4963V2.25404H81.439V26.7964H91.4846L107.419 2.25404H122.228L102.396 31.5661L122.834 62.9594H106.9L91.1382 38.5038Z" fill="white"/>
<path d="M183.272 2.25404V62.9594H169.675V55.5881C165.519 61.1961 159.399 64.0001 151.316 64.0001C144.157 64.0001 138.557 61.7453 134.516 57.2358C130.532 52.6684 128.54 46.1932 128.54 37.8101V2.25404H142.569V37.3764C142.569 42.2329 143.695 45.9041 145.947 48.3901C148.256 50.8184 151.374 52.0325 155.3 52.0325C159.514 52.0325 162.892 50.7316 165.432 48.13C167.972 45.4705 169.242 41.568 169.242 36.4225V2.25404H183.272Z" fill="white"/>
<path d="M294.206 38.5038H284.507V62.9594H270.564V2.25404H284.507V26.7964H294.552L310.487 2.25404H325.296L305.464 31.5661L325.902 62.9594H309.967L294.206 38.5038Z" fill="white"/>
<path d="M361.145 64.0001C354.852 64.0001 349.165 62.6415 344.085 59.9242C339.062 57.2069 335.107 53.4778 332.22 48.737C329.391 43.9384 327.977 38.5616 327.977 32.6067C327.977 26.6518 329.391 21.304 332.22 16.5632C335.107 11.7646 339.062 8.0066 344.085 5.28931C349.165 2.57202 354.852 1.21338 361.145 1.21338C367.438 1.21338 373.096 2.57202 378.119 5.28931C383.141 8.0066 387.096 11.7646 389.983 16.5632C392.869 21.304 394.313 26.6518 394.313 32.6067C394.313 38.5616 392.869 43.9384 389.983 48.737C387.096 53.4778 383.141 57.2069 378.119 59.9242C373.096 62.6415 367.438 64.0001 361.145 64.0001ZM361.145 52.0325C364.724 52.0325 367.957 51.2231 370.844 49.6043C373.731 47.9276 375.982 45.615 377.599 42.6665C379.273 39.7179 380.11 36.3647 380.11 32.6067C380.11 28.8488 379.273 25.4955 377.599 22.547C375.982 19.5984 373.731 17.3148 370.844 15.696C367.957 14.0193 364.724 13.181 361.145 13.181C357.565 13.181 354.332 14.0193 351.446 15.696C348.559 17.3148 346.278 19.5984 344.604 22.547C342.988 25.4955 342.179 28.8488 342.179 32.6067C342.179 36.3647 342.988 39.7179 344.604 42.6665C346.278 45.615 348.559 47.9276 351.446 49.6043C354.332 51.2231 357.565 52.0325 361.145 52.0325Z" fill="white"/>
</svg>
